<svg width="31" height="31" viewBox="0 0 31 31" fill="none" xmlns="http://www.w3.org/2000/svg">
<path fill-rule="evenodd" clip-rule="evenodd" d="M8.48633 14.7508C9.27842 15.1047 9.92883 15.7142 10.3334 16.4816L13.7434 22.6945C13.9987 23.1567 14.1279 23.6779 14.118 24.2058L14.0534 26.7891C14.0513 27.3223 13.766 27.8142 13.3042 28.0808C13.0934 28.1923 12.8582 28.25 12.6197 28.2487C12.3322 28.2475 12.0506 28.1671 11.8059 28.0162L9.63591 26.7245C9.1851 26.4462 8.81538 26.0542 8.56383 25.5879L5.16674 19.375C4.73875 18.5814 4.59301 17.666 4.75341 16.7787C4.85203 15.9411 5.32769 15.1943 6.04508 14.7508C6.81381 14.368 7.7176 14.368 8.48633 14.7508ZM10.6305 25.0066L12.1288 25.9108L12.1159 24.1283C12.1115 23.9388 12.0629 23.753 11.9738 23.5858L8.57675 17.3728C8.37908 16.9817 8.05626 16.668 7.65966 16.4816C7.52719 16.4154 7.38147 16.3801 7.23341 16.3783C7.12541 16.3793 7.01919 16.4058 6.92341 16.4558C6.70929 16.5993 6.57159 16.8319 6.54883 17.0887C6.48981 17.5359 6.58065 17.9902 6.80716 18.3803L10.2042 24.5416C10.2958 24.7363 10.4445 24.8985 10.6305 25.0066Z" fill="#0089ED"/>
<path fill-rule="evenodd" clip-rule="evenodd" d="M17.0758 3.03539L26.1175 12.0771C26.309 12.2679 26.412 12.5302 26.4017 12.8004V21.8421C26.4017 23.4693 25.7553 25.0298 24.6046 26.1804C23.454 27.3311 21.8935 27.9775 20.2662 27.9775H16.5592C16.0241 27.9775 15.5904 27.5437 15.5904 27.0087C15.5904 26.4737 16.0241 26.04 16.5592 26.04H20.2662C22.5817 26.0329 24.4571 24.1576 24.4642 21.8421V13.7691H18.9746C17.0158 13.7621 15.4296 12.1759 15.4225 10.2171V4.72747H12.5162C10.1978 4.72747 8.31833 6.60694 8.31833 8.92539V12.3483C8.31833 12.8833 7.88461 13.3171 7.34958 13.3171C6.81455 13.3171 6.38083 12.8833 6.38083 12.3483V8.92539C6.37051 7.29147 7.01236 5.72093 8.16409 4.56192C9.31583 3.40291 10.8823 2.75119 12.5162 2.75122H16.3912C16.6481 2.75145 16.8943 2.85366 17.0758 3.03539ZM17.36 6.0579V10.2171C17.36 11.1088 18.0829 11.8317 18.9746 11.8317H23.1338L17.36 6.0579Z" fill="#0089ED"/>
</svg>
