<svg width="31" height="25" viewBox="0 0 31 25" fill="none" xmlns="http://www.w3.org/2000/svg">
<path d="M25.0952 2.56024C27.0143 2.56024 28.4905 4.06627 28.4905 6.0241V18.9759C28.4905 20.9337 27.0143 22.4398 25.0952 22.4398H5.90476C3.98571 22.4398 2.50952 20.9337 2.50952 18.9759V6.0241C2.50952 4.06627 3.98571 2.56024 5.90476 2.56024H25.0952ZM25.0952 0H5.90476C2.65714 0 0 2.71084 0 6.0241V18.9759C0 22.2892 2.65714 25 5.90476 25H25.0952C28.3429 25 31 22.2892 31 18.9759V6.0241C31 2.71084 28.3429 0 25.0952 0Z" fill="#0089ED"/>
<path d="M29.3763 9.93976H25.2429C23.9144 9.93976 22.7334 10.994 22.7334 12.5C22.7334 13.8554 23.7667 15.0602 25.2429 15.0602H29.3763" stroke="#0089ED" stroke-width="2.3" stroke-linecap="round" stroke-linejoin="round"/>
</svg>
