<svg width="30" height="30" viewBox="0 0 30 30" fill="none" xmlns="http://www.w3.org/2000/svg">
<path fill-rule="evenodd" clip-rule="evenodd" d="M6.75476 17.0324C7.13562 17.0324 7.51282 16.8777 7.78381 16.5758C9.59473 14.5459 12.215 13.3809 14.9725 13.3809C17.7301 13.3809 20.3503 14.546 22.1613 16.5758C22.6538 17.128 23.5144 17.1871 24.082 16.7047C24.6478 16.2239 24.7083 15.3849 24.2139 14.8312C22.9321 13.3945 21.33 12.3099 19.5612 11.612C20.9143 10.3984 21.7767 8.67351 21.7767 6.74235C21.7767 3.08326 18.7244 0.105286 14.9725 0.105286C11.2207 0.105286 8.16833 3.08326 8.16833 6.74235C8.16833 8.67351 9.03076 10.3984 10.3839 11.612C8.61511 12.3099 7.01111 13.3945 5.7312 14.8312C5.23682 15.3834 5.29724 16.2223 5.86487 16.7047C6.12122 16.9247 6.43799 17.0324 6.75476 17.0324ZM14.9707 2.76316C12.7185 2.76316 10.8875 4.54872 10.8875 6.74539C10.8875 8.9405 12.7185 10.7276 14.9707 10.7276C17.2229 10.7276 19.054 8.94203 19.054 6.74539C19.054 4.54872 17.2229 2.76316 14.9707 2.76316Z" fill="#0089ED"/>
<path d="M28.5809 13.2155C27.8284 13.2155 27.2186 13.8102 27.2186 14.5429C27.2186 21.1299 21.7236 26.4896 14.9707 26.4896C8.21777 26.4896 2.72278 21.1299 2.72278 14.5429C2.72278 13.8103 2.11304 13.2155 1.36047 13.2155C0.609741 13.2155 0 13.8102 0 14.5429C0 22.5938 6.71631 29.1444 14.9707 29.1444C23.2251 29.1444 29.9414 22.5938 29.9414 14.5429C29.9414 13.8103 29.3317 13.2155 28.5809 13.2155Z" fill="#0089ED"/>
</svg>
