<svg width="36" height="36" viewBox="0 0 36 36" fill="none" xmlns="http://www.w3.org/2000/svg">
<path fill-rule="evenodd" clip-rule="evenodd" d="M30.7499 6.375C30.7516 5.54439 30.4089 4.75022 29.8034 4.18165C29.1979 3.61308 28.3837 3.32101 27.5549 3.375H8.44488C7.61601 3.32101 6.80186 3.61308 6.19634 4.18165C5.59082 4.75022 5.24812 5.54439 5.24988 6.375V17.625V19.215C5.23314 21.3657 6.95442 23.1271 9.10488 23.16H14.1299V23.895C14.0939 24.4681 13.9077 25.0217 13.5899 25.5C12.2289 27.7022 12.6119 30.559 14.5049 32.325C16.4605 34.1784 19.5242 34.1784 21.4799 32.325C22.5979 31.3071 23.2305 29.8619 23.2199 28.35C23.2488 27.3516 22.9995 26.3648 22.4999 25.5C22.1509 25.0015 21.953 24.4131 21.9299 23.805L21.7949 23.13L26.9549 23.265C29.1053 23.2321 30.8266 21.4707 30.8099 19.32V17.625L30.7499 6.375ZM7.60493 6.375C7.60493 6.15 7.60493 5.73 8.44493 5.73H27.5549C28.3949 5.73 28.3949 6.15 28.3949 6.375V15.27H7.60493V6.375ZM26.9999 21.045C27.8697 20.9661 28.5273 20.223 28.4999 19.35V17.625H7.49992V19.215C7.48784 19.6552 7.65222 20.082 7.95648 20.4003C8.26074 20.7187 8.67963 20.9022 9.11992 20.91H14.2499C15.437 20.9346 16.3817 21.9128 16.3649 23.1V23.835C16.3406 24.8604 16.0288 25.8583 15.4649 26.715C15.1565 27.2208 14.9954 27.8026 14.9999 28.395C15.0007 29.2847 15.383 30.1312 16.0499 30.72C17.18 31.7062 18.8648 31.7062 19.9949 30.72C20.6436 30.122 21.0087 29.2773 20.9999 28.395C21.0207 27.8038 20.8808 27.218 20.5949 26.7C20.0293 25.8497 19.7172 24.856 19.6949 23.835V23.1C19.6869 22.5246 19.9089 21.9697 20.3116 21.5586C20.7143 21.1474 21.2644 20.914 21.8399 20.91L26.9999 21.045Z" fill="#0089ED"/>
<path d="M10.5 6.54004C9.87868 6.54004 9.375 7.04372 9.375 7.66504V12.87C9.375 13.4914 9.87868 13.995 10.5 13.995C11.1213 13.995 11.625 13.4914 11.625 12.87V7.66504C11.6169 7.0471 11.1179 6.54812 10.5 6.54004V6.54004Z" fill="#0089ED"/>
<path d="M15 6.54004C14.3821 6.54812 13.8831 7.0471 13.875 7.66504V10.29C13.875 10.9114 14.3787 11.415 15 11.415C15.6213 11.415 16.125 10.9114 16.125 10.29V7.66504C16.1169 7.0471 15.6179 6.54812 15 6.54004V6.54004Z" fill="#0089ED"/>
</svg>
