<svg width="64" height="67" viewBox="0 0 64 67" fill="none" xmlns="http://www.w3.org/2000/svg">
<path fill-rule="evenodd" clip-rule="evenodd" d="M35.9212 1.0998C33.2341 -0.366603 29.9858 -0.3666 27.2987 1.09981L4.68875 13.4384C1.79828 15.0157 0 18.0457 0 21.3386V45.1556C0 48.4485 1.79829 51.4784 4.68875 53.0558L27.2987 65.3944C29.9858 66.8608 33.2341 66.8608 35.9212 65.3944L58.5311 53.0558C61.4216 51.4784 63.2199 48.4485 63.2199 45.1556V21.3386C63.2199 18.0457 61.4216 15.0157 58.5311 13.4384L35.9212 1.0998ZM20.6349 38.4221C22.2183 37.0888 23.0099 35.2638 23.0099 32.9471C23.0099 30.6638 22.2183 28.8554 20.6349 27.5221C19.0683 26.1888 16.8099 25.4388 13.8599 25.2721V23.4971H10.1349V25.2971C7.16826 25.4804 4.89326 26.2304 3.30993 27.5471C1.74326 28.8471 0.959928 30.6471 0.959928 32.9471C0.959928 35.2304 1.74326 37.0388 3.30993 38.3721C4.89326 39.6888 7.16826 40.4304 10.1349 40.5971V42.5221H13.8599V40.6221C16.8099 40.4721 19.0683 39.7388 20.6349 38.4221ZM17.8099 36.0971C16.9433 36.8304 15.6266 37.2804 13.8599 37.4471V28.4721C17.3599 28.7721 19.1099 30.2554 19.1099 32.9221C19.1099 34.2888 18.6766 35.3471 17.8099 36.0971ZM10.1349 37.4471C6.63493 37.0804 4.88493 35.5804 4.88493 32.9471C4.88493 31.5804 5.30993 30.5388 6.15993 29.8221C7.0266 29.0888 8.35159 28.6388 10.1349 28.4721V37.4471ZM29.6148 28.2971H25.7148V41.7471H29.6148V28.2971ZM25.9148 25.7971C26.3648 26.2138 26.9481 26.4221 27.6648 26.4221C28.3815 26.4221 28.9648 26.2138 29.4148 25.7971C29.8648 25.3638 30.0898 24.8221 30.0898 24.1721C30.0898 23.5721 29.8648 23.0721 29.4148 22.6721C28.9648 22.2721 28.3815 22.0721 27.6648 22.0721C26.9481 22.0721 26.3648 22.2804 25.9148 22.6971C25.4648 23.1138 25.2398 23.6304 25.2398 24.2471C25.2398 24.8638 25.4648 25.3804 25.9148 25.7971ZM44.682 28.9721C43.6653 28.3888 42.532 28.0971 41.282 28.0971C39.432 28.0971 38.0237 28.6804 37.057 29.8471V28.2971H33.332V46.5971H37.232V40.3221C38.2153 41.4054 39.5653 41.9471 41.282 41.9471C42.532 41.9471 43.6653 41.6638 44.682 41.0971C45.7153 40.5138 46.5237 39.7054 47.107 38.6721C47.6903 37.6221 47.982 36.4054 47.982 35.0221C47.982 33.6388 47.6903 32.4304 47.107 31.3971C46.5237 30.3471 45.7153 29.5388 44.682 28.9721ZM43.057 37.7471C42.4237 38.4138 41.607 38.7471 40.607 38.7471C39.607 38.7471 38.782 38.4138 38.132 37.7471C37.4987 37.0638 37.182 36.1554 37.182 35.0221C37.182 33.8888 37.4987 32.9888 38.132 32.3221C38.782 31.6388 39.607 31.2971 40.607 31.2971C41.607 31.2971 42.4237 31.6388 43.057 32.3221C43.707 32.9888 44.032 33.8888 44.032 35.0221C44.032 36.1554 43.707 37.0638 43.057 37.7471ZM60.5207 29.5971C59.404 28.5971 57.804 28.0971 55.7207 28.0971C54.6373 28.0971 53.579 28.2388 52.5457 28.5221C51.529 28.8054 50.654 29.2054 49.9207 29.7221L51.3207 32.4471C51.804 32.0638 52.3873 31.7638 53.0707 31.5471C53.7707 31.3138 54.479 31.1971 55.1957 31.1971C56.229 31.1971 57.004 31.4304 57.5207 31.8971C58.0373 32.3471 58.2957 32.9971 58.2957 33.8471H55.1957C53.229 33.8471 51.7707 34.2054 50.8207 34.9221C49.8873 35.6388 49.4207 36.6221 49.4207 37.8721C49.4207 38.6554 49.6207 39.3554 50.0207 39.9721C50.4207 40.5888 50.9957 41.0721 51.7457 41.4221C52.5123 41.7721 53.4123 41.9471 54.4457 41.9471C56.4457 41.9471 57.8123 41.3221 58.5457 40.0721V41.7471H62.1957V34.0721C62.1957 32.0721 61.6373 30.5804 60.5207 29.5971ZM57.1957 38.8721C56.679 39.1721 56.0873 39.3221 55.4207 39.3221C54.7373 39.3221 54.1957 39.1804 53.7957 38.8971C53.4123 38.5971 53.2207 38.1971 53.2207 37.6971C53.2207 36.6471 54.0207 36.1221 55.6207 36.1221H58.2957V37.4971C58.079 38.0971 57.7123 38.5554 57.1957 38.8721Z" fill="white"/>
</svg>
